<svg width="12" height="12" viewBox="0 0 12 12" fill="none" xmlns="http://www.w3.org/2000/svg">
    <path d="M6 2C5.20888 2 4.43552 2.2346 3.77772 2.67412C3.11992 3.11365 2.60723 3.73836 2.30448 4.46927C2.00173 5.20017 1.92252 6.00444 2.07686 6.78036C2.2312 7.55629 2.61216 8.26902 3.17157 8.82843C3.73098 9.38784 4.44372 9.7688 5.21964 9.92314C5.99556 10.0775 6.79983 9.99827 7.53074 9.69552C8.26164 9.39277 8.88635 8.88008 9.32588 8.22228C9.76541 7.56448 10 6.79113 10 6C10 4.93913 9.57857 3.92172 8.82843 3.17157C8.07828 2.42143 7.06087 2 6 2ZM7.884 6.339L5.089 7.85C5.02909 7.88805 4.9598 7.90876 4.88883 7.90981C4.81786 7.91086 4.74798 7.89222 4.68697 7.85597C4.62595 7.81971 4.57617 7.76725 4.54317 7.70441C4.51017 7.64157 4.49522 7.57082 4.5 7.5V4.5C4.49522 4.42918 4.51017 4.35843 4.54317 4.29559C4.57617 4.23275 4.62595 4.18029 4.68697 4.14403C4.74798 4.10778 4.81786 4.08914 4.88883 4.09019C4.9598 4.09124 5.02909 4.11195 5.089 4.15L7.884 5.6615C7.94945 5.69062 8.00506 5.7381 8.04408 5.79818C8.08311 5.85826 8.10388 5.92836 8.10388 6C8.10388 6.07164 8.08311 6.14174 8.04408 6.20182C8.00506 6.2619 7.94945 6.30938 7.884 6.3385V6.339Z" fill="url(#paint0_radial)"/>
    <path d="M4.86349 1.13083C5.61134 0.958328 6.38864 0.958328 7.13649 1.13083C7.20045 1.14573 7.26671 1.1479 7.3315 1.13719C7.39629 1.12649 7.45834 1.10313 7.5141 1.06845C7.56986 1.03376 7.61824 0.988436 7.65649 0.935055C7.69473 0.881673 7.72209 0.821281 7.73699 0.757328C7.7519 0.693374 7.75406 0.627111 7.74336 0.562321C7.73265 0.497532 7.70929 0.435485 7.67461 0.379723C7.63993 0.323962 7.5946 0.275577 7.54122 0.237333C7.48784 0.199088 7.42745 0.171733 7.36349 0.156828C6.46622 -0.0496717 5.53376 -0.0496717 4.63649 0.156828C4.50733 0.18693 4.39542 0.267108 4.32537 0.379723C4.25533 0.492339 4.23289 0.628167 4.26299 0.757328C4.29309 0.886488 4.37327 0.9984 4.48589 1.06845C4.5985 1.13849 4.73433 1.16093 4.86349 1.13083Z" fill="url(#paint1_radial)"/>
    <path d="M1.063 3.51917C1.17534 3.58878 1.31067 3.61107 1.43941 3.58118C1.56815 3.5513 1.67981 3.47166 1.75 3.35967C2.15738 2.70766 2.70799 2.15706 3.36 1.74967C3.47271 1.67959 3.55297 1.5676 3.58312 1.43834C3.61327 1.30908 3.59083 1.17314 3.52075 1.06042C3.45066 0.947706 3.33867 0.867446 3.20942 0.8373C3.08016 0.807153 2.94421 0.82959 2.8315 0.899673C2.05037 1.38816 1.39097 2.04841 0.903498 2.83017C0.86872 2.88588 0.845258 2.9479 0.834452 3.01268C0.823645 3.07746 0.825707 3.14373 0.840519 3.20771C0.85533 3.2717 0.882602 3.33213 0.920775 3.38558C0.958949 3.43902 1.00728 3.48441 1.063 3.51917Z" fill="url(#paint2_radial)"/>
    <path d="M1.1295 7.13649C0.956837 6.38849 0.956837 5.61099 1.1295 4.86299C1.14673 4.79826 1.15078 4.73072 1.1414 4.66439C1.13203 4.59806 1.10942 4.53429 1.07492 4.47687C1.04042 4.41945 0.994732 4.36954 0.940571 4.33012C0.88641 4.2907 0.824879 4.26256 0.759633 4.24738C0.694387 4.2322 0.626756 4.23029 0.560755 4.24175C0.494755 4.25322 0.431731 4.27783 0.375427 4.31412C0.319122 4.35042 0.270685 4.39765 0.232991 4.45303C0.195298 4.50841 0.169116 4.5708 0.156002 4.63649C-0.0520006 5.53342 -0.0520006 6.46606 0.156002 7.36299C0.169116 7.42868 0.195298 7.49107 0.232991 7.54645C0.270685 7.60183 0.319122 7.64906 0.375427 7.68536C0.431731 7.72165 0.494755 7.74626 0.560755 7.75773C0.626756 7.76919 0.694387 7.76728 0.759633 7.7521C0.824879 7.73692 0.88641 7.70878 0.940571 7.66936C0.994732 7.62994 1.04042 7.58003 1.07492 7.52261C1.10942 7.46519 1.13203 7.40142 1.1414 7.33509C1.15078 7.26876 1.14673 7.20122 1.1295 7.13649Z" fill="url(#paint3_radial)"/>
    <path d="M3.36 10.2483C2.70821 9.84145 2.15762 9.29155 1.75 8.64026C1.71523 8.58445 1.66981 8.53604 1.61633 8.49778C1.56285 8.45952 1.50236 8.43217 1.43831 8.41729C1.37426 8.40241 1.30791 8.40029 1.24304 8.41105C1.17817 8.42181 1.11606 8.44525 1.06025 8.48001C1.00444 8.51478 0.956018 8.5602 0.917759 8.61368C0.879501 8.66716 0.852151 8.72765 0.83727 8.7917C0.822389 8.85575 0.82027 8.9221 0.831033 8.98697C0.841795 9.05184 0.865229 9.11395 0.899997 9.16976C1.388 9.95043 2.04733 10.6098 2.828 11.0978C2.94071 11.1678 3.07665 11.1903 3.20591 11.1601C3.33517 11.13 3.44716 11.0497 3.51725 10.937C3.58733 10.8243 3.60977 10.6884 3.57962 10.5591C3.54947 10.4298 3.46921 10.3178 3.3565 10.2478L3.36 10.2483Z" fill="url(#paint4_radial)"/>
    <path d="M7.13649 10.8685C6.38864 11.041 5.61134 11.041 4.86349 10.8685C4.73426 10.8384 4.59837 10.8609 4.48571 10.931C4.37305 11.0011 4.29284 11.113 4.26274 11.2423C4.23264 11.3715 4.25511 11.5074 4.3252 11.62C4.39529 11.7327 4.50726 11.8129 4.63649 11.843C5.53367 12.0504 6.46631 12.0504 7.36349 11.843C7.42748 11.8281 7.4879 11.8007 7.54131 11.7625C7.59473 11.7242 7.64008 11.6758 7.67479 11.62C7.70949 11.5643 7.73287 11.5022 7.74359 11.4374C7.7543 11.3725 7.75215 11.3063 7.73724 11.2423C7.72234 11.1783 7.69497 11.1179 7.65672 11.0644C7.61846 11.011 7.57006 10.9657 7.51427 10.931C7.45849 10.8963 7.39641 10.8729 7.33159 10.8622C7.26677 10.8515 7.20048 10.8536 7.13649 10.8685Z" fill="url(#paint5_radial)"/>
    <path d="M10.937 8.48016C10.8813 8.44538 10.8193 8.42192 10.7545 8.41111C10.6897 8.40031 10.6235 8.40237 10.5595 8.41718C10.4955 8.43199 10.4351 8.45926 10.3816 8.49744C10.3282 8.53561 10.2828 8.58394 10.248 8.63966C9.84096 9.29072 9.29107 9.8406 8.64001 10.2477C8.5842 10.2824 8.53577 10.3277 8.49749 10.3811C8.4592 10.4346 8.43182 10.495 8.41689 10.559C8.40196 10.623 8.39979 10.6893 8.41049 10.7542C8.42119 10.819 8.44456 10.8811 8.47926 10.9369C8.51396 10.9927 8.55932 11.0411 8.61274 11.0794C8.66616 11.1177 8.72659 11.1451 8.79059 11.16C8.8546 11.175 8.92091 11.1771 8.98576 11.1664C9.0506 11.1557 9.1127 11.1324 9.16851 11.0977C9.94918 10.6097 10.6085 9.95033 11.0965 9.16966C11.1314 9.11393 11.1549 9.05187 11.1657 8.98704C11.1766 8.92221 11.1745 8.85588 11.1597 8.79183C11.1449 8.72779 11.1176 8.6673 11.0794 8.61382C11.0412 8.56034 10.9928 8.51492 10.937 8.48016Z" fill="url(#paint6_radial)"/>
    <path d="M11.844 4.63649C11.8309 4.5708 11.8047 4.50841 11.767 4.45303C11.7293 4.39765 11.6809 4.35042 11.6246 4.31412C11.5683 4.27783 11.5052 4.25322 11.4392 4.24175C11.3732 4.23029 11.3056 4.2322 11.2404 4.24738C11.1751 4.26256 11.1136 4.2907 11.0594 4.33012C11.0053 4.36954 10.9596 4.41945 10.9251 4.47687C10.8906 4.53429 10.868 4.59806 10.8586 4.66439C10.8492 4.73072 10.8533 4.79826 10.8705 4.86299C11.0432 5.61099 11.0432 6.38849 10.8705 7.13649C10.8533 7.20122 10.8492 7.26876 10.8586 7.33509C10.868 7.40142 10.8906 7.46519 10.9251 7.52261C10.9596 7.58003 11.0053 7.62994 11.0594 7.66936C11.1136 7.70878 11.1751 7.73692 11.2404 7.7521C11.3056 7.76728 11.3732 7.76919 11.4392 7.75773C11.5052 7.74626 11.5683 7.72165 11.6246 7.68536C11.6809 7.64906 11.7293 7.60183 11.767 7.54645C11.8047 7.49107 11.8309 7.42868 11.844 7.36299C12.052 6.46606 12.052 5.53342 11.844 4.63649Z" fill="url(#paint7_radial)"/>
    <path d="M8.63999 1.74978C9.292 2.15717 9.84261 2.70777 10.25 3.35978C10.3202 3.4725 10.4323 3.5527 10.5617 3.58276C10.691 3.61281 10.827 3.59025 10.9397 3.52003C11.0525 3.44981 11.1327 3.3377 11.1627 3.20834C11.1928 3.07899 11.1702 2.943 11.1 2.83028C10.6122 2.04961 9.95279 1.39041 9.17199 0.90278C9.11638 0.867849 9.05443 0.844213 8.98968 0.833223C8.92493 0.822234 8.85865 0.824105 8.79462 0.83873C8.7306 0.853355 8.67008 0.880448 8.61652 0.918462C8.56297 0.956475 8.51742 1.00467 8.48249 1.06028C8.44756 1.11589 8.42393 1.17785 8.41294 1.24259C8.40195 1.30734 8.40382 1.37362 8.41844 1.43765C8.43307 1.50168 8.46016 1.56219 8.49817 1.61575C8.53619 1.6693 8.58438 1.71485 8.63999 1.74978Z" fill="url(#paint8_radial)"/>
    <defs>
        <radialGradient id="paint0_radial" cx="0" cy="0" r="1" gradientUnits="userSpaceOnUse" gradientTransform="translate(3.06289 10.0378) scale(10.4437 10.4433)">
            <stop offset="0.09" stop-color="#FA8F21"/>
            <stop offset="0.78" stop-color="#D82D7E"/>
        </radialGradient>
        <radialGradient id="paint1_radial" cx="0" cy="0" r="1" gradientUnits="userSpaceOnUse" gradientTransform="translate(4.71497 1.14928) scale(4.56928 1.49069)">
            <stop offset="0.09" stop-color="#FA8F21"/>
            <stop offset="0.78" stop-color="#D82D7E"/>
        </radialGradient>
        <radialGradient id="paint2_radial" cx="0" cy="0" r="1" gradientUnits="userSpaceOnUse" gradientTransform="translate(1.19547 3.60723) scale(3.61427 3.6159)">
            <stop offset="0.09" stop-color="#FA8F21"/>
            <stop offset="0.78" stop-color="#D82D7E"/>
        </radialGradient>
        <radialGradient id="paint3_radial" cx="0" cy="0" r="1" gradientUnits="userSpaceOnUse" gradientTransform="translate(0.152302 7.78178) scale(1.49649 4.60907)">
            <stop offset="0.09" stop-color="#FA8F21"/>
            <stop offset="0.78" stop-color="#D82D7E"/>
        </radialGradient>
        <radialGradient id="paint4_radial" cx="0" cy="0" r="1" gradientUnits="userSpaceOnUse" gradientTransform="translate(1.1921 11.1863) scale(3.61409 3.6146)">
            <stop offset="0.09" stop-color="#FA8F21"/>
            <stop offset="0.78" stop-color="#D82D7E"/>
        </radialGradient>
        <radialGradient id="paint5_radial" cx="0" cy="0" r="1" gradientUnits="userSpaceOnUse" gradientTransform="translate(4.71479 12.0039) scale(4.56991 1.49216)">
            <stop offset="0.09" stop-color="#FA8F21"/>
            <stop offset="0.78" stop-color="#D82D7E"/>
        </radialGradient>
        <radialGradient id="paint6_radial" cx="0" cy="0" r="1" gradientUnits="userSpaceOnUse" gradientTransform="translate(8.77167 11.1862) scale(3.61457 3.61445)">
            <stop offset="0.09" stop-color="#FA8F21"/>
            <stop offset="0.78" stop-color="#D82D7E"/>
        </radialGradient>
        <radialGradient id="paint7_radial" cx="0" cy="0" r="1" gradientUnits="userSpaceOnUse" gradientTransform="translate(11.006 7.78178) scale(1.49649 4.60907)">
            <stop offset="0.09" stop-color="#FA8F21"/>
            <stop offset="0.78" stop-color="#D82D7E"/>
        </radialGradient>
        <radialGradient id="paint8_radial" cx="0" cy="0" r="1" gradientUnits="userSpaceOnUse" gradientTransform="translate(8.77389 3.60883) scale(3.61592 3.61545)">
            <stop offset="0.09" stop-color="#FA8F21"/>
            <stop offset="0.78" stop-color="#D82D7E"/>
        </radialGradient>
    </defs>
</svg>
