<svg viewBox="0 0 16 16" fill="none" xmlns="http://www.w3.org/2000/svg">
<g clip-path="url(#clip0_8990_36112)">
<path d="M8 0.000541687C3.494 0.000541687 0 3.30255 0 7.76055C0 10.0926 0.956004 12.1086 2.512 13.5006C2.642 13.6166 2.722 13.7806 2.726 13.9566L2.77 15.3806C2.77391 15.4851 2.80325 15.587 2.85548 15.6776C2.9077 15.7682 2.98123 15.8447 3.06969 15.9005C3.15815 15.9562 3.25888 15.9895 3.36313 15.9976C3.46739 16.0056 3.57204 15.9881 3.668 15.9466L5.256 15.2466C5.39073 15.187 5.5419 15.1757 5.684 15.2146C6.414 15.4146 7.19 15.5226 8 15.5226C12.506 15.5226 16 12.2206 16 7.76255C16 3.30454 12.506 0.000541687 8 0.000541687Z" fill="url(#paint0_radial_8990_36112)"/>
<path d="M3.196 10.0306L5.546 6.30255C5.6344 6.16219 5.75094 6.04168 5.88827 5.94864C6.02559 5.85559 6.18071 5.79203 6.34384 5.76196C6.50697 5.73189 6.67456 5.73597 6.83604 5.77393C6.99751 5.8119 7.14936 5.88293 7.282 5.98254L9.152 7.38454C9.23548 7.44705 9.33705 7.48066 9.44133 7.4803C9.54562 7.47994 9.64692 7.44562 9.73002 7.38255L12.254 5.46655C12.59 5.21055 13.03 5.61455 12.806 5.97255L10.454 9.69858C10.3656 9.83888 10.249 9.95938 10.1117 10.0525C9.97442 10.1455 9.81932 10.2091 9.65612 10.2391C9.49302 10.2692 9.32543 10.2651 9.16396 10.2272C9.00248 10.1892 8.85063 10.1182 8.718 10.0186L6.848 8.61655C6.76451 8.55404 6.66295 8.52043 6.55866 8.52079C6.45438 8.52115 6.35304 8.55547 6.27 8.61855L3.746 10.5346C3.41 10.7906 2.97 10.3886 3.196 10.0306Z" fill="white"/>
</g>
<defs>
<radialGradient id="paint0_radial_8990_36112" cx="0" cy="0" r="1" gradientUnits="userSpaceOnUse" gradientTransform="translate(2.68 16.0006) scale(17.6)">
<stop stop-color="#0099FF"/>
<stop offset="0.6" stop-color="#A033FF"/>
<stop offset="0.9" stop-color="#FF5280"/>
<stop offset="1" stop-color="#FF7061"/>
</radialGradient>
<clipPath id="clip0_8990_36112">
<rect width="16" height="16" fill="white"/>
</clipPath>
</defs>
</svg>
