<svg viewBox="0 0 16 16" fill="none" xmlns="http://www.w3.org/2000/svg">
    <g id="Social Logo">
        <path id="Vector - Strokable" fill-rule="evenodd" clip-rule="evenodd" d="M0 9.63325C0 10.5741 0.185836 11.3998 0.564197 12.0291C1.02768 12.8014 1.77604 13.3139 2.95952 13.3139C3.95716 13.3139 4.71498 12.866 5.60245 11.6842C6.10878 11.0092 6.36529 10.6003 7.37794 8.80476L8.00585 7.69242C8.04634 7.75876 8.08706 7.82613 8.12797 7.89448L9.56295 10.2915C10.0453 11.0983 10.6724 11.9957 11.2088 12.501C11.9065 13.1592 12.5375 13.3139 13.2497 13.3139C14.3953 13.3139 15.0764 12.7091 15.4258 12.1037C15.7875 11.4777 16 10.6854 16 9.6071C16 7.79322 15.546 6.03553 14.6107 4.64006C13.756 3.36589 12.6393 2.68652 11.467 2.68652C10.7687 2.68652 10.0748 2.99811 9.43163 3.55897C8.9969 3.93813 8.59283 4.41673 8.21821 4.9228C7.75715 4.33912 7.32838 3.89425 6.91278 3.55507C6.12436 2.91131 5.36932 2.68652 4.60982 2.68652C3.29837 2.68652 2.15496 3.54061 1.36263 4.76192C0.469607 6.13902 0 7.9223 0 9.63325ZM9.00337 6.00535C9.26966 6.40045 9.54797 6.83971 9.84115 7.32806L10.2523 8.01355C11.245 9.66719 11.8097 10.5179 12.1402 10.9191C12.5653 11.4343 12.863 11.5879 13.2497 11.5879C14.2306 11.5879 14.4754 10.6865 14.4754 9.65495C14.4754 8.18493 14.1327 6.55354 13.3777 5.38787C12.8418 4.56105 12.1475 4.05584 11.3835 4.05584C10.5572 4.05584 9.89234 4.67901 9.14508 5.79015C9.09801 5.8601 9.05081 5.93185 9.00337 6.00535ZM2.03756 11.0588C1.86229 10.775 1.7282 10.3059 1.7282 9.69501C1.7282 8.21386 2.14828 6.6715 2.83433 5.63603C3.31952 4.90324 3.89929 4.42418 4.582 4.42418C5.42552 4.42418 5.9541 4.95165 6.36529 5.38843C6.57069 5.6067 6.85644 5.96668 7.18858 6.4397L6.50828 7.48497C6.35935 7.71371 6.18882 7.98294 6.00637 8.27103C5.57064 8.95905 5.06566 9.75641 4.61705 10.3772C3.82251 11.4761 3.41021 11.5879 2.95952 11.5879C2.61009 11.5879 2.26735 11.4304 2.03756 11.0588Z" fill="white"/>
        <g id="Vector">
            <path d="M1.7282 9.69501C1.7282 10.3059 1.86229 10.775 2.03756 11.0588C2.26735 11.4304 2.6101 11.5879 2.95952 11.5879C3.41021 11.5879 3.82251 11.4761 4.61705 10.3772C5.25358 9.49637 6.00362 8.26004 6.50828 7.48497L7.36292 6.17185C7.9566 5.2599 8.64376 4.24613 9.43163 3.55897C10.0748 2.99811 10.7687 2.68652 11.467 2.68652C12.6393 2.68652 13.756 3.36589 14.6107 4.64006C15.546 6.03553 16 7.79321 16 9.6071C16 10.6854 15.7875 11.4777 15.4258 12.1037C15.0764 12.7091 14.3953 13.3139 13.2497 13.3139V11.5879C14.2306 11.5879 14.4754 10.6865 14.4754 9.65495C14.4754 8.18493 14.1327 6.55354 13.3777 5.38787C12.8418 4.56105 12.1474 4.05584 11.3835 4.05584C10.5572 4.05584 9.89234 4.67901 9.14508 5.79015C8.74781 6.3805 8.33996 7.09993 7.88204 7.91173L7.37794 8.80476C6.36528 10.6003 6.10878 11.0092 5.60245 11.6842C4.71498 12.866 3.95716 13.3139 2.95952 13.3139C1.77605 13.3139 1.02768 12.8014 0.564195 12.0291C0.18584 11.3998 0 10.5741 0 9.63325L1.7282 9.69501Z" fill="#0081FB"/>
            <path d="M1.36264 4.76192C2.15496 3.54061 3.29837 2.68652 4.60982 2.68652C5.36931 2.68652 6.12436 2.91131 6.91278 3.55507C7.77521 4.25893 8.69439 5.41792 9.84115 7.32806L10.2523 8.01355C11.245 9.66719 11.8097 10.5179 12.1402 10.9191C12.5653 11.4343 12.863 11.5879 13.2497 11.5879C14.2306 11.5879 14.4754 10.6865 14.4754 9.65495L16 9.6071C16 10.6854 15.7875 11.4777 15.4258 12.1037C15.0764 12.7091 14.3953 13.3139 13.2497 13.3139C12.5375 13.3139 11.9065 13.1592 11.2088 12.501C10.6724 11.9957 10.0453 11.0983 9.56294 10.2915L8.12797 7.89448C7.40798 6.69153 6.74753 5.79461 6.36528 5.38843C5.9541 4.95165 5.42551 4.42418 4.582 4.42418C3.89929 4.42418 3.31952 4.90324 2.83433 5.63603L1.36264 4.76192Z" fill="url(#paint0_linear_159_19657)"/>
            <path d="M4.582 4.42418C3.89929 4.42418 3.31952 4.90324 2.83433 5.63603C2.14828 6.6715 1.7282 8.21386 1.7282 9.69501C1.7282 10.3059 1.86229 10.775 2.03756 11.0588L0.564195 12.0291C0.18584 11.3998 0 10.5741 0 9.63325C0 7.9223 0.469606 6.13902 1.36264 4.76192C2.15496 3.54061 3.29837 2.68652 4.60982 2.68652L4.582 4.42418Z" fill="url(#paint1_linear_159_19657)"/>
        </g>
    </g>
    <defs>
        <linearGradient id="paint0_linear_159_19657" x1="2.22055" y1="9.19647" x2="14.257" y2="9.86096" gradientUnits="userSpaceOnUse">
            <stop stop-color="#0064E1"/>
            <stop offset="0.4" stop-color="#0064E1"/>
            <stop offset="0.83" stop-color="#0073EE"/>
            <stop offset="1" stop-color="#0082FB"/>
        </linearGradient>
        <linearGradient id="paint1_linear_159_19657" x1="2.50383" y1="10.4206" x2="2.50383" y2="6.3588" gradientUnits="userSpaceOnUse">
            <stop stop-color="#0082FB"/>
            <stop offset="1" stop-color="#0064E0"/>
        </linearGradient>
    </defs>
</svg>
