<svg viewBox="0 0 16 16" xmlns="http://www.w3.org/2000/svg">
<g clip-path="url(#clip0_533_272951)">
<path d="M11.9809 7.1998H11.9969C12.4209 7.1998 12.7729 6.8638 12.7969 6.4398C12.8689 5.0798 13.4769 4.7998 14.3809 4.7998H14.3969C14.8369 4.7998 15.1969 4.4478 15.1969 4.0078C15.2049 3.5678 14.8529 3.2078 14.4129 3.1998C13.2449 3.1758 12.7969 2.7278 12.7969 1.5998C12.7969 1.1598 12.4369 0.799805 11.9969 0.799805C11.5569 0.799805 11.1969 1.1598 11.1969 1.5998C11.1969 2.7358 10.7409 3.1838 9.58887 3.1998C9.14887 3.2078 8.79688 3.5678 8.79688 4.0078C8.79688 4.4478 9.15688 4.7998 9.59688 4.7998C10.7569 4.7998 11.1889 5.2398 11.1969 6.4078C11.2049 6.8398 11.5489 7.1918 11.9809 7.1998Z" fill="url(#paint0_linear_533_272951)"/>
<path d="M6.38088 15.1998H6.39687C6.82087 15.1998 7.17287 14.8638 7.19688 14.4398C7.34088 11.6478 8.56487 10.3998 11.1649 10.3998H11.1969C11.6129 10.4318 11.9969 10.0478 11.9969 9.6078C11.9969 9.1678 11.6529 8.8078 11.2129 8.7998C8.42888 8.7358 7.18887 7.5038 7.19688 4.7998C7.19688 4.3598 6.83688 3.9998 6.39687 3.9998C5.95687 3.9998 5.59688 4.3598 5.59688 4.7998C5.58888 7.5278 4.35687 8.7598 1.58887 8.7998C1.14888 8.8078 0.796875 9.1678 0.796875 9.6078C0.796875 10.0478 1.15688 10.3998 1.59688 10.3998H1.60488C4.34088 10.3998 5.56488 11.6398 5.59688 14.4078C5.60488 14.8398 5.94888 15.1918 6.38088 15.1998ZM6.43688 11.1358C6.06888 10.4878 5.56487 9.9678 4.92487 9.5838L4.93288 9.5758C5.54088 9.2078 6.02887 8.7278 6.39687 8.1198C6.77287 8.7358 7.27687 9.2318 7.91687 9.5998C7.30087 9.9838 6.81288 10.4958 6.43688 11.1358Z" fill="url(#paint1_linear_533_272951)"/>
</g>
<defs>
<linearGradient id="paint0_linear_533_272951" x1="0.796875" y1="7.9998" x2="15.197" y2="7.9998" gradientUnits="userSpaceOnUse">
<stop stop-color="#578FFF"/>
<stop offset="1" stop-color="#DF52FF"/>
</linearGradient>
<linearGradient id="paint1_linear_533_272951" x1="0.796875" y1="7.9998" x2="15.197" y2="7.9998" gradientUnits="userSpaceOnUse">
<stop stop-color="#578FFF"/>
<stop offset="1" stop-color="#DF52FF"/>
</linearGradient>
<clipPath id="clip0_533_272951">
<rect width="16" height="16" fill="white"/>
</clipPath>
</defs>
</svg>
