<svg viewBox="0 0 16 16" fill="none" xmlns="http://www.w3.org/2000/svg">
<path fill-rule="evenodd" clip-rule="evenodd" d="M0 16L1.125 11.892C0.429391 10.6869 0.0644165 9.31947 0.067 7.92802C0.068 3.55602 3.626 1.80422e-05 7.998 1.80422e-05C9.04032 -0.00221091 10.0727 0.202107 11.0356 0.60117C11.9985 1.00023 12.8728 1.58613 13.608 2.32502C14.346 3.0604 14.9311 3.93467 15.3295 4.89738C15.7279 5.86008 15.9316 6.89215 15.929 7.93402C15.927 12.306 12.368 15.863 7.998 15.863H7.994C6.66997 15.8624 5.36711 15.5307 4.204 14.898L0 16ZM8 1.33902C6.25234 1.3406 4.57666 2.03529 3.3405 3.27069C2.10435 4.5061 1.40865 6.18136 1.406 7.92902C1.40436 9.16957 1.75345 10.3853 2.413 11.436L2.57 11.685L1.904 14.116L4.399 13.462L4.64 13.605C5.652 14.205 6.812 14.523 7.995 14.524H7.998C9.08159 14.5226 10.1482 14.2545 11.1036 13.7432C12.059 13.232 12.8738 12.4933 13.4761 11.5925C14.0784 10.6918 14.4496 9.65654 14.5571 8.57829C14.6645 7.50004 14.5048 6.41192 14.092 5.41002C13.7619 4.60904 13.275 3.88213 12.66 3.27202C12.0503 2.65687 11.3242 2.16917 10.5242 1.83731C9.72418 1.50545 8.86612 1.33607 8 1.33902Z" fill="white"/>
<path d="M8.00001 1.339C6.25235 1.34058 4.57667 2.03527 3.34052 3.27067C2.10436 4.50608 1.40866 6.18134 1.40601 7.929C1.40437 9.16955 1.75346 10.3853 2.41301 11.436L2.57001 11.685L1.90401 14.116L4.39901 13.462L4.64001 13.605C5.65201 14.205 6.81201 14.523 7.99501 14.524H7.99801C9.0816 14.5226 10.1482 14.2544 11.1036 13.7432C12.059 13.2319 12.8738 12.4933 13.4761 11.5925C14.0784 10.6917 14.4496 9.65652 14.5571 8.57827C14.6645 7.50001 14.5048 6.4119 14.092 5.41C13.7619 4.60902 13.2751 3.88211 12.66 3.272C12.0503 2.65685 11.3243 2.16915 10.5242 1.83729C9.72419 1.50543 8.86614 1.33605 8.00001 1.339Z" fill="url(#paint0_linear_8990_36099)"/>
<path fill-rule="evenodd" clip-rule="evenodd" d="M6.01499 4.614C5.86699 4.284 5.71099 4.277 5.56899 4.271L5.18999 4.267C5.08956 4.26955 4.99074 4.29281 4.89972 4.33531C4.8087 4.37781 4.72742 4.43864 4.66099 4.514C4.47999 4.713 3.96799 5.192 3.96799 6.167C3.96799 7.142 4.67799 8.084 4.77699 8.217C4.87599 8.35 6.14799 10.413 8.16199 11.208C9.83599 11.868 10.176 11.737 10.54 11.704C10.903 11.671 11.712 11.224 11.877 10.762C12.042 10.299 12.042 9.902 11.993 9.819C11.943 9.737 11.811 9.687 11.613 9.588C11.415 9.489 10.441 9.01 10.259 8.943C10.077 8.877 9.94499 8.844 9.81299 9.043C9.68099 9.241 9.30099 9.687 9.18599 9.819C9.06999 9.952 8.95499 9.968 8.75599 9.869C8.55699 9.77 7.91999 9.561 7.16299 8.886C6.57399 8.36 6.17599 7.712 6.05999 7.514C5.94399 7.316 6.04799 7.208 6.14699 7.109C6.23599 7.02 6.34499 6.878 6.44499 6.762C6.54499 6.646 6.57699 6.564 6.64299 6.432C6.70899 6.3 6.67599 6.184 6.62599 6.085C6.57699 5.986 6.19099 5.005 6.01499 4.614Z" fill="white"/>
<defs>
<linearGradient id="paint0_linear_8990_36099" x1="7.80201" y1="0.959997" x2="7.88347" y2="14.633" gradientUnits="userSpaceOnUse">
<stop stop-color="#57D163"/>
<stop offset="1" stop-color="#23B33A"/>
</linearGradient>
</defs>
</svg>
